<mxfile host="app.diagrams.net" modified="2023-04-08T07:29:12.991Z" agent="Mozilla/5.0 (Windows NT 10.0; Win64; x64) AppleWebKit/537.36 (KHTML, like Gecko) Chrome/111.0.0.0 Safari/537.36" etag="Tlah_WyIdgf8r1xRUT-5" version="21.1.5" type="github">
  <diagram name="Page-1" id="fvBgpRy3-9N2SmB_q3jH">
    <mxGraphModel dx="1690" dy="1539" grid="1" gridSize="10" guides="1" tooltips="1" connect="1" arrows="1" fold="1" page="1" pageScale="1" pageWidth="850" pageHeight="1100" math="0" shadow="0">
      <root>
        <mxCell id="0" />
        <mxCell id="1" parent="0" />
        <mxCell id="8r1lrKJG5UwEcUCWLv-V-47" value="" style="edgeStyle=orthogonalEdgeStyle;rounded=0;orthogonalLoop=1;jettySize=auto;html=1;" edge="1" parent="1" source="8r1lrKJG5UwEcUCWLv-V-26" target="8r1lrKJG5UwEcUCWLv-V-37">
          <mxGeometry relative="1" as="geometry">
            <Array as="points">
              <mxPoint x="290" y="320" />
              <mxPoint x="290" y="320" />
            </Array>
          </mxGeometry>
        </mxCell>
        <mxCell id="8r1lrKJG5UwEcUCWLv-V-65" style="edgeStyle=orthogonalEdgeStyle;rounded=0;orthogonalLoop=1;jettySize=auto;html=1;entryX=0.5;entryY=1;entryDx=0;entryDy=0;entryPerimeter=0;" edge="1" parent="1" source="8r1lrKJG5UwEcUCWLv-V-26" target="8r1lrKJG5UwEcUCWLv-V-64">
          <mxGeometry relative="1" as="geometry" />
        </mxCell>
        <mxCell id="8r1lrKJG5UwEcUCWLv-V-26" value="vendors" style="swimlane;fontStyle=0;childLayout=stackLayout;horizontal=1;startSize=26;horizontalStack=0;resizeParent=1;resizeParentMax=0;resizeLast=0;collapsible=1;marginBottom=0;align=center;fontSize=14;" vertex="1" parent="1">
          <mxGeometry x="90" y="100" width="160" height="265" as="geometry" />
        </mxCell>
        <mxCell id="8r1lrKJG5UwEcUCWLv-V-27" value="id" style="text;strokeColor=none;fillColor=none;spacingLeft=4;spacingRight=4;overflow=hidden;rotatable=0;points=[[0,0.5],[1,0.5]];portConstraint=eastwest;fontSize=12;whiteSpace=wrap;html=1;" vertex="1" parent="8r1lrKJG5UwEcUCWLv-V-26">
          <mxGeometry y="26" width="160" height="30" as="geometry" />
        </mxCell>
        <mxCell id="8r1lrKJG5UwEcUCWLv-V-28" value="name" style="text;strokeColor=default;fillColor=none;spacingLeft=4;spacingRight=4;overflow=hidden;rotatable=0;points=[[0,0.5],[1,0.5]];portConstraint=eastwest;fontSize=12;whiteSpace=wrap;html=1;" vertex="1" parent="8r1lrKJG5UwEcUCWLv-V-26">
          <mxGeometry y="56" width="160" height="30" as="geometry" />
        </mxCell>
        <mxCell id="8r1lrKJG5UwEcUCWLv-V-29" value="email" style="text;strokeColor=default;fillColor=none;spacingLeft=4;spacingRight=4;overflow=hidden;rotatable=0;points=[[0,0.5],[1,0.5]];portConstraint=eastwest;fontSize=12;whiteSpace=wrap;html=1;" vertex="1" parent="8r1lrKJG5UwEcUCWLv-V-26">
          <mxGeometry y="86" width="160" height="30" as="geometry" />
        </mxCell>
        <mxCell id="8r1lrKJG5UwEcUCWLv-V-31" value="phone" style="text;strokeColor=default;fillColor=none;spacingLeft=4;spacingRight=4;overflow=hidden;rotatable=0;points=[[0,0.5],[1,0.5]];portConstraint=eastwest;fontSize=12;whiteSpace=wrap;html=1;" vertex="1" parent="8r1lrKJG5UwEcUCWLv-V-26">
          <mxGeometry y="116" width="160" height="30" as="geometry" />
        </mxCell>
        <mxCell id="8r1lrKJG5UwEcUCWLv-V-32" value="password" style="text;strokeColor=default;fillColor=none;spacingLeft=4;spacingRight=4;overflow=hidden;rotatable=0;points=[[0,0.5],[1,0.5]];portConstraint=eastwest;fontSize=12;whiteSpace=wrap;html=1;" vertex="1" parent="8r1lrKJG5UwEcUCWLv-V-26">
          <mxGeometry y="146" width="160" height="30" as="geometry" />
        </mxCell>
        <mxCell id="8r1lrKJG5UwEcUCWLv-V-33" value="address" style="text;strokeColor=default;fillColor=none;spacingLeft=4;spacingRight=4;overflow=hidden;rotatable=0;points=[[0,0.5],[1,0.5]];portConstraint=eastwest;fontSize=12;whiteSpace=wrap;html=1;" vertex="1" parent="8r1lrKJG5UwEcUCWLv-V-26">
          <mxGeometry y="176" width="160" height="30" as="geometry" />
        </mxCell>
        <mxCell id="8r1lrKJG5UwEcUCWLv-V-34" value="products[ids]" style="text;strokeColor=default;fillColor=none;spacingLeft=4;spacingRight=4;overflow=hidden;rotatable=0;points=[[0,0.5],[1,0.5]];portConstraint=eastwest;fontSize=12;whiteSpace=wrap;html=1;" vertex="1" parent="8r1lrKJG5UwEcUCWLv-V-26">
          <mxGeometry y="206" width="160" height="30" as="geometry" />
        </mxCell>
        <mxCell id="8r1lrKJG5UwEcUCWLv-V-35" value="orders[ids]" style="text;strokeColor=none;fillColor=none;spacingLeft=4;spacingRight=4;overflow=hidden;rotatable=0;points=[[0,0.5],[1,0.5]];portConstraint=eastwest;fontSize=12;whiteSpace=wrap;html=1;" vertex="1" parent="8r1lrKJG5UwEcUCWLv-V-26">
          <mxGeometry y="236" width="160" height="29" as="geometry" />
        </mxCell>
        <mxCell id="8r1lrKJG5UwEcUCWLv-V-59" value="" style="edgeStyle=orthogonalEdgeStyle;rounded=0;orthogonalLoop=1;jettySize=auto;html=1;" edge="1" parent="1" source="8r1lrKJG5UwEcUCWLv-V-37" target="8r1lrKJG5UwEcUCWLv-V-50">
          <mxGeometry relative="1" as="geometry" />
        </mxCell>
        <mxCell id="8r1lrKJG5UwEcUCWLv-V-37" value="Products" style="swimlane;fontStyle=0;childLayout=stackLayout;horizontal=1;startSize=26;horizontalStack=0;resizeParent=1;resizeParentMax=0;resizeLast=0;collapsible=1;marginBottom=0;align=center;fontSize=14;" vertex="1" parent="1">
          <mxGeometry x="330" y="274" width="160" height="266" as="geometry" />
        </mxCell>
        <mxCell id="8r1lrKJG5UwEcUCWLv-V-61" style="edgeStyle=orthogonalEdgeStyle;rounded=0;orthogonalLoop=1;jettySize=auto;html=1;" edge="1" parent="8r1lrKJG5UwEcUCWLv-V-37" source="8r1lrKJG5UwEcUCWLv-V-38">
          <mxGeometry relative="1" as="geometry">
            <mxPoint x="230" y="41" as="targetPoint" />
          </mxGeometry>
        </mxCell>
        <mxCell id="8r1lrKJG5UwEcUCWLv-V-38" value="id" style="text;strokeColor=none;fillColor=none;spacingLeft=4;spacingRight=4;overflow=hidden;rotatable=0;points=[[0,0.5],[1,0.5]];portConstraint=eastwest;fontSize=12;whiteSpace=wrap;html=1;" vertex="1" parent="8r1lrKJG5UwEcUCWLv-V-37">
          <mxGeometry y="26" width="160" height="30" as="geometry" />
        </mxCell>
        <mxCell id="8r1lrKJG5UwEcUCWLv-V-39" value="name" style="text;strokeColor=default;fillColor=none;spacingLeft=4;spacingRight=4;overflow=hidden;rotatable=0;points=[[0,0.5],[1,0.5]];portConstraint=eastwest;fontSize=12;whiteSpace=wrap;html=1;" vertex="1" parent="8r1lrKJG5UwEcUCWLv-V-37">
          <mxGeometry y="56" width="160" height="30" as="geometry" />
        </mxCell>
        <mxCell id="8r1lrKJG5UwEcUCWLv-V-40" value="description" style="text;strokeColor=default;fillColor=none;spacingLeft=4;spacingRight=4;overflow=hidden;rotatable=0;points=[[0,0.5],[1,0.5]];portConstraint=eastwest;fontSize=12;whiteSpace=wrap;html=1;" vertex="1" parent="8r1lrKJG5UwEcUCWLv-V-37">
          <mxGeometry y="86" width="160" height="30" as="geometry" />
        </mxCell>
        <mxCell id="8r1lrKJG5UwEcUCWLv-V-41" value="category" style="text;strokeColor=default;fillColor=none;spacingLeft=4;spacingRight=4;overflow=hidden;rotatable=0;points=[[0,0.5],[1,0.5]];portConstraint=eastwest;fontSize=12;whiteSpace=wrap;html=1;" vertex="1" parent="8r1lrKJG5UwEcUCWLv-V-37">
          <mxGeometry y="116" width="160" height="30" as="geometry" />
        </mxCell>
        <mxCell id="8r1lrKJG5UwEcUCWLv-V-42" value="price" style="text;strokeColor=default;fillColor=none;spacingLeft=4;spacingRight=4;overflow=hidden;rotatable=0;points=[[0,0.5],[1,0.5]];portConstraint=eastwest;fontSize=12;whiteSpace=wrap;html=1;" vertex="1" parent="8r1lrKJG5UwEcUCWLv-V-37">
          <mxGeometry y="146" width="160" height="30" as="geometry" />
        </mxCell>
        <mxCell id="8r1lrKJG5UwEcUCWLv-V-44" value="image" style="text;strokeColor=default;fillColor=none;spacingLeft=4;spacingRight=4;overflow=hidden;rotatable=0;points=[[0,0.5],[1,0.5]];portConstraint=eastwest;fontSize=12;whiteSpace=wrap;html=1;" vertex="1" parent="8r1lrKJG5UwEcUCWLv-V-37">
          <mxGeometry y="176" width="160" height="30" as="geometry" />
        </mxCell>
        <mxCell id="8r1lrKJG5UwEcUCWLv-V-45" value="vendors[ids]" style="text;strokeColor=default;fillColor=none;spacingLeft=4;spacingRight=4;overflow=hidden;rotatable=0;points=[[0,0.5],[1,0.5]];portConstraint=eastwest;fontSize=12;whiteSpace=wrap;html=1;" vertex="1" parent="8r1lrKJG5UwEcUCWLv-V-37">
          <mxGeometry y="206" width="160" height="30" as="geometry" />
        </mxCell>
        <mxCell id="8r1lrKJG5UwEcUCWLv-V-46" value="stocks" style="text;strokeColor=none;fillColor=none;spacingLeft=4;spacingRight=4;overflow=hidden;rotatable=0;points=[[0,0.5],[1,0.5]];portConstraint=eastwest;fontSize=12;whiteSpace=wrap;html=1;" vertex="1" parent="8r1lrKJG5UwEcUCWLv-V-37">
          <mxGeometry y="236" width="160" height="30" as="geometry" />
        </mxCell>
        <mxCell id="8r1lrKJG5UwEcUCWLv-V-50" value="orders" style="swimlane;fontStyle=0;childLayout=stackLayout;horizontal=1;startSize=26;horizontalStack=0;resizeParent=1;resizeParentMax=0;resizeLast=0;collapsible=1;marginBottom=0;align=center;fontSize=14;" vertex="1" parent="1">
          <mxGeometry x="330" y="-72" width="160" height="280" as="geometry" />
        </mxCell>
        <mxCell id="8r1lrKJG5UwEcUCWLv-V-51" value="id" style="text;strokeColor=none;fillColor=none;spacingLeft=4;spacingRight=4;overflow=hidden;rotatable=0;points=[[0,0.5],[1,0.5]];portConstraint=eastwest;fontSize=12;whiteSpace=wrap;html=1;" vertex="1" parent="8r1lrKJG5UwEcUCWLv-V-50">
          <mxGeometry y="26" width="160" height="30" as="geometry" />
        </mxCell>
        <mxCell id="8r1lrKJG5UwEcUCWLv-V-52" value="status[pending,processing,&lt;br&gt;shipped,delivered]" style="text;strokeColor=default;fillColor=none;spacingLeft=4;spacingRight=4;overflow=hidden;rotatable=0;points=[[0,0.5],[1,0.5]];portConstraint=eastwest;fontSize=12;whiteSpace=wrap;html=1;" vertex="1" parent="8r1lrKJG5UwEcUCWLv-V-50">
          <mxGeometry y="56" width="160" height="44" as="geometry" />
        </mxCell>
        <mxCell id="8r1lrKJG5UwEcUCWLv-V-53" value="description" style="text;strokeColor=default;fillColor=none;spacingLeft=4;spacingRight=4;overflow=hidden;rotatable=0;points=[[0,0.5],[1,0.5]];portConstraint=eastwest;fontSize=12;whiteSpace=wrap;html=1;" vertex="1" parent="8r1lrKJG5UwEcUCWLv-V-50">
          <mxGeometry y="100" width="160" height="30" as="geometry" />
        </mxCell>
        <mxCell id="8r1lrKJG5UwEcUCWLv-V-54" value="customer_id" style="text;strokeColor=default;fillColor=none;spacingLeft=4;spacingRight=4;overflow=hidden;rotatable=0;points=[[0,0.5],[1,0.5]];portConstraint=eastwest;fontSize=12;whiteSpace=wrap;html=1;" vertex="1" parent="8r1lrKJG5UwEcUCWLv-V-50">
          <mxGeometry y="130" width="160" height="30" as="geometry" />
        </mxCell>
        <mxCell id="8r1lrKJG5UwEcUCWLv-V-55" value="vendor_id" style="text;strokeColor=default;fillColor=none;spacingLeft=4;spacingRight=4;overflow=hidden;rotatable=0;points=[[0,0.5],[1,0.5]];portConstraint=eastwest;fontSize=12;whiteSpace=wrap;html=1;" vertex="1" parent="8r1lrKJG5UwEcUCWLv-V-50">
          <mxGeometry y="160" width="160" height="30" as="geometry" />
        </mxCell>
        <mxCell id="8r1lrKJG5UwEcUCWLv-V-56" value="products[ids]" style="text;strokeColor=default;fillColor=none;spacingLeft=4;spacingRight=4;overflow=hidden;rotatable=0;points=[[0,0.5],[1,0.5]];portConstraint=eastwest;fontSize=12;whiteSpace=wrap;html=1;" vertex="1" parent="8r1lrKJG5UwEcUCWLv-V-50">
          <mxGeometry y="190" width="160" height="30" as="geometry" />
        </mxCell>
        <mxCell id="8r1lrKJG5UwEcUCWLv-V-57" value="quantities[ids]" style="text;strokeColor=default;fillColor=none;spacingLeft=4;spacingRight=4;overflow=hidden;rotatable=0;points=[[0,0.5],[1,0.5]];portConstraint=eastwest;fontSize=12;whiteSpace=wrap;html=1;" vertex="1" parent="8r1lrKJG5UwEcUCWLv-V-50">
          <mxGeometry y="220" width="160" height="30" as="geometry" />
        </mxCell>
        <mxCell id="8r1lrKJG5UwEcUCWLv-V-58" value="totalprice" style="text;strokeColor=none;fillColor=none;spacingLeft=4;spacingRight=4;overflow=hidden;rotatable=0;points=[[0,0.5],[1,0.5]];portConstraint=eastwest;fontSize=12;whiteSpace=wrap;html=1;" vertex="1" parent="8r1lrKJG5UwEcUCWLv-V-50">
          <mxGeometry y="250" width="160" height="30" as="geometry" />
        </mxCell>
        <mxCell id="8r1lrKJG5UwEcUCWLv-V-60" value="Shopifys Products&lt;br&gt;Json" style="shape=note;size=20;whiteSpace=wrap;html=1;" vertex="1" parent="1">
          <mxGeometry x="560" y="250" width="100" height="100" as="geometry" />
        </mxCell>
        <mxCell id="8r1lrKJG5UwEcUCWLv-V-62" value="Shopifys Orders&lt;br&gt;Json" style="shape=note;size=20;whiteSpace=wrap;html=1;" vertex="1" parent="1">
          <mxGeometry x="550" y="-20" width="100" height="100" as="geometry" />
        </mxCell>
        <mxCell id="8r1lrKJG5UwEcUCWLv-V-63" style="edgeStyle=orthogonalEdgeStyle;rounded=0;orthogonalLoop=1;jettySize=auto;html=1;entryX=0.008;entryY=0.298;entryDx=0;entryDy=0;entryPerimeter=0;" edge="1" parent="1" source="8r1lrKJG5UwEcUCWLv-V-52" target="8r1lrKJG5UwEcUCWLv-V-62">
          <mxGeometry relative="1" as="geometry" />
        </mxCell>
        <mxCell id="8r1lrKJG5UwEcUCWLv-V-64" value="Top Level Mongodb&amp;nbsp;&lt;br&gt;vendors &lt;br&gt;collection" style="shape=note;size=20;whiteSpace=wrap;html=1;" vertex="1" parent="1">
          <mxGeometry x="110" y="-30" width="100" height="100" as="geometry" />
        </mxCell>
        <mxCell id="8r1lrKJG5UwEcUCWLv-V-67" style="edgeStyle=orthogonalEdgeStyle;rounded=0;orthogonalLoop=1;jettySize=auto;html=1;exitX=1;exitY=0.5;exitDx=0;exitDy=0;entryX=0;entryY=0.5;entryDx=0;entryDy=0;" edge="1" parent="1" source="8r1lrKJG5UwEcUCWLv-V-66" target="8r1lrKJG5UwEcUCWLv-V-34">
          <mxGeometry relative="1" as="geometry" />
        </mxCell>
        <mxCell id="8r1lrKJG5UwEcUCWLv-V-66" value="Foreign field" style="whiteSpace=wrap;html=1;align=center;" vertex="1" parent="1">
          <mxGeometry x="-30" y="300" width="100" height="40" as="geometry" />
        </mxCell>
        <mxCell id="8r1lrKJG5UwEcUCWLv-V-72" style="edgeStyle=orthogonalEdgeStyle;rounded=0;orthogonalLoop=1;jettySize=auto;html=1;exitX=1;exitY=0.25;exitDx=0;exitDy=0;entryX=0;entryY=0.536;entryDx=0;entryDy=0;entryPerimeter=0;" edge="1" parent="1" source="8r1lrKJG5UwEcUCWLv-V-68" target="8r1lrKJG5UwEcUCWLv-V-45">
          <mxGeometry relative="1" as="geometry" />
        </mxCell>
        <mxCell id="8r1lrKJG5UwEcUCWLv-V-68" value="Foreign field" style="whiteSpace=wrap;html=1;align=center;" vertex="1" parent="1">
          <mxGeometry x="177" y="525" width="100" height="40" as="geometry" />
        </mxCell>
        <mxCell id="8r1lrKJG5UwEcUCWLv-V-73" style="edgeStyle=orthogonalEdgeStyle;rounded=0;orthogonalLoop=1;jettySize=auto;html=1;exitX=0;exitY=0.5;exitDx=0;exitDy=0;" edge="1" parent="1" source="8r1lrKJG5UwEcUCWLv-V-45" target="8r1lrKJG5UwEcUCWLv-V-27">
          <mxGeometry relative="1" as="geometry">
            <mxPoint x="-50" y="130" as="targetPoint" />
          </mxGeometry>
        </mxCell>
        <mxCell id="8r1lrKJG5UwEcUCWLv-V-74" value="Do we need to store everything on our end?&lt;br&gt;can&#39;t we make Shopify handle orders, products and customer relationships at their end.in this&amp;nbsp;&lt;br&gt;way whenever we need ,we can make a call to the Shopify database like orders,&lt;br&gt;customers, products" style="shape=note;size=20;whiteSpace=wrap;html=1;fillColor=#ffe6cc;strokeColor=#d79b00;" vertex="1" parent="1">
          <mxGeometry x="60" y="-360" width="280" height="100" as="geometry" />
        </mxCell>
        <mxCell id="8r1lrKJG5UwEcUCWLv-V-76" value="One-One" style="text;html=1;align=center;verticalAlign=middle;resizable=0;points=[];autosize=1;fillColor=none;fontColor=#FF1414;" vertex="1" parent="1">
          <mxGeometry x="254" y="291" width="70" height="30" as="geometry" />
        </mxCell>
        <mxCell id="8r1lrKJG5UwEcUCWLv-V-81" value="One-One" style="text;html=1;align=center;verticalAlign=middle;resizable=0;points=[];autosize=1;fillColor=none;fontColor=#FF1414;" vertex="1" parent="1">
          <mxGeometry x="254" y="460" width="70" height="30" as="geometry" />
        </mxCell>
        <mxCell id="8r1lrKJG5UwEcUCWLv-V-92" value="orders[ids]" style="text;strokeColor=default;fillColor=none;spacingLeft=4;spacingRight=4;overflow=hidden;rotatable=0;points=[[0,0.5],[1,0.5]];portConstraint=eastwest;fontSize=12;whiteSpace=wrap;html=1;" vertex="1" parent="1">
          <mxGeometry x="90" y="365" width="160" height="29" as="geometry" />
        </mxCell>
      </root>
    </mxGraphModel>
  </diagram>
</mxfile>
